<?xml version="1.0" standalone="no"?><!DOCTYPE svg PUBLIC "-//W3C//DTD SVG 1.1//EN"
  "http://www.w3.org/Graphics/SVG/1.1/DTD/svg11.dtd">
<svg width="64.246094" height="73.576172" viewBox="0 0 64.2461 73.5762" fill="none" xmlns="http://www.w3.org/2000/svg" xmlns:xlink="http://www.w3.org/1999/xlink">
	<desc>
			Created with Pixso.
	</desc>
	<defs>
		<filter id="filter_38_1395_dd" x="0.000000" y="0.000000" width="64.246094" height="73.576172" filterUnits="userSpaceOnUse" color-interpolation-filters="sRGB">
			<feFlood flood-opacity="0" result="BackgroundImageFix"/>
			<feColorMatrix in="SourceAlpha" type="matrix" values="0 0 0 0 0 0 0 0 0 0 0 0 0 0 0 0 0 0 127 0" result="hardAlpha"/>
			<feOffset dx="0" dy="4"/>
			<feGaussianBlur stdDeviation="1.33333"/>
			<feComposite in2="hardAlpha" operator="out" k2="-1" k3="1"/>
			<feColorMatrix type="matrix" values="0 0 0 0 0 0 0 0 0 0 0 0 0 0 0 0 0 0 0.25 0"/>
			<feBlend mode="normal" in2="BackgroundImageFix" result="effect_dropShadow_1"/>
			<feBlend mode="normal" in="SourceGraphic" in2="effect_dropShadow_1" result="shape"/>
		</filter>
	</defs>
	<g filter="url(#filter_38_1395_dd)">
		<mask id="mask_38_1394" fill="white">
			<path id="Subtract" d="M60.2461 28.0123C60.2461 12.5416 47.6552 0 32.1233 0C16.6589 0 4.15649 12.3223 4.00146 27.725C3.8844 39.3582 10.8878 49.3744 20.9358 53.7185C22.6172 54.4454 24.0555 55.6354 25.0859 57.1453L30.1178 64.5188C31.08 65.9286 33.166 65.9286 34.1283 64.5188L39.1599 57.1455C40.1873 55.6401 41.6179 54.449 43.2947 53.7253C53.2682 49.4204 60.2461 39.5288 60.2461 28.0123ZM32.1245 42.2754C40.0337 42.2754 46.4454 35.8889 46.4454 28.0107C46.4454 20.1326 40.0337 13.7461 32.1245 13.7461C24.2152 13.7461 17.8035 20.1326 17.8035 28.0107C17.8035 35.8889 24.2152 42.2754 32.1245 42.2754Z" clip-rule="evenodd" fill="" fill-opacity="1.000000" fill-rule="evenodd"/>
		</mask>
		<path id="Subtract" d="M60.2461 28.0123C60.2461 12.5416 47.6552 0 32.1233 0C16.6589 0 4.15649 12.3223 4.00146 27.725C3.8844 39.3582 10.8878 49.3744 20.9358 53.7185C22.6172 54.4454 24.0555 55.6354 25.0859 57.1453L30.1178 64.5188C31.08 65.9286 33.166 65.9286 34.1283 64.5188L39.1599 57.1455C40.1873 55.6401 41.6179 54.449 43.2947 53.7253C53.2682 49.4204 60.2461 39.5288 60.2461 28.0123ZM32.1245 42.2754C40.0337 42.2754 46.4454 35.8889 46.4454 28.0107C46.4454 20.1326 40.0337 13.7461 32.1245 13.7461C24.2152 13.7461 17.8035 20.1326 17.8035 28.0107C17.8035 35.8889 24.2152 42.2754 32.1245 42.2754Z" clip-rule="evenodd" fill="#FC5757" fill-opacity="1.000000" fill-rule="evenodd" mask="url(#mask_38_1394)"/>
		<path id="Subtract" d="M32.1233 0C47.6552 0 60.2461 12.5416 60.2461 28.0123C60.2461 39.5288 53.2682 49.4204 43.2947 53.7253C41.6179 54.449 40.1873 55.6401 39.1599 57.1455L34.1283 64.5188C33.166 65.9286 31.08 65.9286 30.1178 64.5188L25.0859 57.1453C24.0555 55.6354 22.6172 54.4454 20.9358 53.7185C10.8878 49.3744 3.8844 39.3582 4.00146 27.725C4.15649 12.3223 16.6589 0 32.1233 0ZM51.3033 8.91309C56.5985 14.1875 59.2461 20.5538 59.2461 28.0123C59.2461 33.4856 57.7242 38.4866 54.6805 43.0154Q52.4387 46.351 49.4701 48.8089Q46.5386 51.236 42.8984 52.8071C41.0193 53.6182 39.4978 54.8763 38.334 56.5818L33.3022 63.9551Q33.0925 64.2625 32.8015 64.4177Q32.5046 64.5762 32.123 64.5762C31.6194 64.5762 31.2263 64.3691 30.9437 63.9551L25.912 56.5817C24.7495 54.8783 23.223 53.6179 21.3326 52.8007C16.4093 50.6721 12.4615 47.3723 9.4895 42.9015C6.44177 38.3169 4.9458 33.2614 5.00134 27.7351C5.07617 20.3092 7.75012 13.9969 13.0234 8.79858C18.2974 3.59949 24.6641 1 32.1233 1C39.6138 1 46.0072 3.6377 51.3033 8.91309ZM21.2922 38.8059C24.2837 41.7856 27.8944 43.2754 32.1245 43.2754C36.3545 43.2754 39.9652 41.7856 42.9567 38.8059C45.9492 35.8252 47.4454 32.2268 47.4454 28.0107C47.4454 23.7948 45.9492 20.1964 42.9567 17.2156C39.9652 14.236 36.3545 12.7461 32.1245 12.7461C27.8944 12.7461 24.2837 14.236 21.2922 17.2156C18.2997 20.1964 16.8035 23.7948 16.8035 28.0107C16.8035 32.2268 18.2997 35.8252 21.2922 38.8059ZM46.4454 28.0107C46.4454 35.8889 40.0337 42.2754 32.1245 42.2754C24.2152 42.2754 17.8035 35.8889 17.8035 28.0107C17.8035 20.1326 24.2152 13.7461 32.1245 13.7461C40.0337 13.7461 46.4454 20.1326 46.4454 28.0107Z" clip-rule="evenodd" fill="#DC1212" fill-opacity="1.000000" fill-rule="evenodd"/>
	</g>
	<circle id="椭圆 173" cx="32.000000" cy="28.000000" r="15.000000" fill="#D52929" fill-opacity="1.000000"/>
</svg>
