<?xml version="1.0" standalone="no"?><!DOCTYPE svg PUBLIC "-//W3C//DTD SVG 1.1//EN"
  "http://www.w3.org/Graphics/SVG/1.1/DTD/svg11.dtd">
<svg width="64.246094" height="73.576172" viewBox="0 0 64.2461 73.5762" fill="none" xmlns="http://www.w3.org/2000/svg" xmlns:xlink="http://www.w3.org/1999/xlink">
                <desc>
                    Created with Pixso.
                </desc>
                <defs>
                  <filter id="filter_2_240_dd" x="0.000000" y="0.000000" width="64.246094" height="73.576172" filterUnits="userSpaceOnUse" color-interpolation-filters="sRGB">
                    <feFlood flood-opacity="0" result="BackgroundImageFix"/>
                    <feColorMatrix in="SourceAlpha" type="matrix" values="0 0 0 0 0 0 0 0 0 0 0 0 0 0 0 0 0 0 127 0" result="hardAlpha"/>
                    <feOffset dx="0" dy="4"/>
                    <feGaussianBlur stdDeviation="1.33333"/>
                    <feComposite in2="hardAlpha" operator="out" k2="-1" k3="1"/>
                    <feColorMatrix type="matrix" values="0 0 0 0 0 0 0 0 0 0 0 0 0 0 0 0 0 0 0.25 0"/>
                    <feBlend mode="normal" in2="BackgroundImageFix" result="effect_dropShadow_1"/>
                    <feBlend mode="normal" in="SourceGraphic" in2="effect_dropShadow_1" result="shape"/>
                  </filter>
                </defs>
                <g filter="url(#filter_2_240_dd)">
                  <mask id="mask_2_343" fill="white">
                    <path id="Subtract" d="M60.2461 28.0123C60.2461 12.5416 47.6551 0 32.1232 0C16.659 0 4.15655 12.3223 4.00144 27.725C3.88438 39.3582 10.8878 49.3744 20.9358 53.7185C22.6172 54.4454 24.0555 55.6354 25.086 57.1453L30.1178 64.5188C31.08 65.9286 33.1661 65.9286 34.1283 64.5188L39.16 57.1455C40.1872 55.6401 41.618 54.449 43.2946 53.7253C53.2682 49.4204 60.2461 39.5288 60.2461 28.0123ZM32.1245 42.2754C40.0338 42.2754 46.4455 35.8889 46.4455 28.0107C46.4455 20.1326 40.0338 13.7461 32.1245 13.7461C24.2152 13.7461 17.8034 20.1326 17.8034 28.0107C17.8034 35.8889 24.2152 42.2754 32.1245 42.2754Z" clip-rule="evenodd" fill="" fill-opacity="1.000000" fill-rule="evenodd"/>
                  </mask>
                  <path id="Subtract" d="M60.2461 28.0123C60.2461 12.5416 47.6551 0 32.1232 0C16.659 0 4.15655 12.3223 4.00144 27.725C3.88438 39.3582 10.8878 49.3744 20.9358 53.7185C22.6172 54.4454 24.0555 55.6354 25.086 57.1453L30.1178 64.5188C31.08 65.9286 33.1661 65.9286 34.1283 64.5188L39.16 57.1455C40.1872 55.6401 41.618 54.449 43.2946 53.7253C53.2682 49.4204 60.2461 39.5288 60.2461 28.0123ZM32.1245 42.2754C40.0338 42.2754 46.4455 35.8889 46.4455 28.0107C46.4455 20.1326 40.0338 13.7461 32.1245 13.7461C24.2152 13.7461 17.8034 20.1326 17.8034 28.0107C17.8034 35.8889 24.2152 42.2754 32.1245 42.2754Z" clip-rule="evenodd" fill="#4ADE55" fill-opacity="1.000000" fill-rule="evenodd" mask="url(#mask_2_343)"/>
                  <path id="Subtract" d="M32.1232 0C47.6551 0 60.2461 12.5416 60.2461 28.0123C60.2461 39.5288 53.2682 49.4204 43.2946 53.7253C41.618 54.449 40.1872 55.6401 39.16 57.1455L34.1283 64.5188C33.1661 65.9286 31.08 65.9286 30.1178 64.5188L25.086 57.1453C24.0555 55.6354 22.6172 54.4454 20.9358 53.7185C10.8878 49.3744 3.88438 39.3582 4.00144 27.725C4.15655 12.3223 16.659 0 32.1232 0ZM51.3034 8.91315C56.5985 14.1875 59.2461 20.5538 59.2461 28.0123C59.2461 33.4856 57.7242 38.4866 54.6805 43.0154C51.7101 47.4351 47.7827 50.699 42.8984 52.8071C41.0193 53.6182 39.4978 54.8763 38.334 56.5818L33.3023 63.9551C33.0197 64.3691 32.6266 64.5762 32.123 64.5762C31.6194 64.5762 31.2263 64.3691 30.9438 63.9551L25.9119 56.5817C24.7495 54.8783 23.2231 53.6179 21.3327 52.8007C16.4092 50.6721 12.4615 47.3723 9.4895 42.9015C6.44182 38.3169 4.94578 33.2614 5.00139 27.7351C5.07616 20.3092 7.75018 13.997 13.0234 8.79865Q16.8801 4.99675 21.5158 3.04831Q26.389 1 32.1232 1C39.6138 1 46.0072 3.6377 51.3034 8.91315ZM21.2922 38.8059C24.2837 41.7856 27.8944 43.2754 32.1245 43.2754C36.3545 43.2754 39.9652 41.7856 42.9567 38.8059C45.9492 35.8252 47.4455 32.2268 47.4455 28.0107C47.4455 23.7948 45.9492 20.1964 42.9567 17.2156C39.9652 14.2359 36.3545 12.7461 32.1245 12.7461C27.8944 12.7461 24.2837 14.2359 21.2922 17.2156Q19.0336 19.4654 17.9114 22.1843Q16.8034 24.8689 16.8034 28.0107C16.8034 32.2268 18.2997 35.8252 21.2922 38.8059ZM46.4455 28.0107C46.4455 35.8889 40.0338 42.2754 32.1245 42.2754C24.2152 42.2754 17.8034 35.8889 17.8034 28.0107C17.8034 20.1326 24.2152 13.7461 32.1245 13.7461C40.0338 13.7461 46.4455 20.1326 46.4455 28.0107Z" clip-rule="evenodd" fill="#1FB83B" fill-opacity="1.000000" fill-rule="evenodd"/>
                </g>
                <circle id="椭圆 153" cx="32.000000" cy="28.000000" r="15.000000" fill="#1FB83B" fill-opacity="1.000000"/>
              </svg>
